#!OML:ASF H:\Male1\Project 1\Capture day 1\Session 1\Male1.ASF
:FULLY-SPECIFIED
:DEGREES
683
root -8.46369 15.0727 -0.290525 1523.3 273.283 -86.4256
lowerback 3.17724 2.08213 3.13654
upperback 4.28701 2.74216 -0.657813
thorax 2.81701 1.43909 -2.4479
lowerneck -12.2822 2.80983 4.96417
upperneck 23.4297 2.13136 1.23459
head 9.4757 1.42239 -0.183172
rclavicle -3.66758e-014 1.11319e-014
rhumerus -35.9017 5.44447 -90.7155
rradius 36.3102
rwrist -19.6781
rhand -18.9224 -1.03779
rfingers 7.12502
rthumb 7.38006 -30.8891
lclavicle -3.66758e-014 1.11319e-014
lhumerus -40.5797 11.7483 72.3851
lradius 17.3556
lwrist -21.0395
lhand -14.4483 15.1844
lfingers 7.12502
lthumb 11.6968 44.8378
rfemur 21.0347 0.233138 28.4454
rtibia 26.175
rfoot -4.12106 -11.6031
rtoes -27.5759
lfemur -23.2623 -12.7238 -18.0188
ltibia 31.6346
lfoot -10.5543 14.2946
ltoes 7.9238
684
root -8.7782 15.0912 -0.224236 1508.4 271.433 -71.2221
lowerback 2.74602 1.9477 1.55777
upperback 4.2738 2.55185 -1.25873
thorax 2.98403 1.30897 -2.16844
lowerneck -12.586 2.83984 4.87844
upperneck 24.0957 2.1284 1.27219
head 9.76763 1.4203 -0.149243
rclavicle -2.15681e-014 0
rhumerus -36.03 5.02526 -90.5056
rradius 35.6199
rwrist -19.5513
rhand -18.6155 -1.31822
rfingers 7.12502
rthumb 7.67624 -31.1589
lclavicle -2.15681e-014 0
lhumerus -39.695 11.7184 73.1748
lradius 17.5774
lwrist -20.2398
lhand -14.3826 15.4825
lfingers 7.12502
lthumb 11.7602 45.1324
rfemur 17.2273 -1.2007 24.8966
rtibia 33.7055
rfoot -1.74439 -9.32226
rtoes -29.4085
lfemur -22.0289 -12.3829 -20.8448
ltibia 31.5518
lfoot -10.6604 14.2605
ltoes 7.39825
685
root -9.08985 15.1114 -0.195806 1527.93 271.138 -91.0902
lowerback 3.02754 1.99375 1.20168
upperback 4.40332 2.60518 -1.26747
thorax 2.94631 1.3224 -1.9862
lowerneck -12.8933 2.91966 4.89111
upperneck 24.7002 2.20977 1.182
head 10.0461 1.45137 -0.165921
rclavicle -1.78906e-014 7.95139e-015
rhumerus -36.2023 4.76529 -90.3044
rradius 35.2373
rwrist -19.185
rhand -17.7227 -1.71868
rfingers 7.12502
rthumb 8.53792 -31.5261
lclavicle -1.78906e-014 7.95139e-015
lhumerus -38.8119 10.9403 74.5086
lradius 18.2518
lwrist -18.1452
lhand -14.7198 15.6599
lfingers 7.12502
lthumb 11.435 45.3281
rfemur 13.9733 -1.24718 24.2021
rtibia 40.8057
rfoot 0.103358 -8.84329
rtoes -27.053
lfemur -20.0567 -11.6305 -21.5502
ltibia 31.1013
lfoot -11.2528 14.1843
ltoes 7.28463
686
root -9.39371 15.129 -0.165431 1559.8 270.449 -123.254
lowerback 3.5171 1.96355 0.389432
upperback 4.37349 2.55109 -1.44457
thorax 2.60918 1.26931 -1.73278
lowerneck -12.925 3.00197 4.92076
upperneck 25.2116 2.31782 1.05255
head 10.2416 1.48772 -0.200464
rclavicle -1.32689e-014 4.37326e-015
rhumerus -36.5208 4.63463 -90.1475
rradius 34.8027
rwrist -18.531
rhand -16.5942 -1.96556
rfingers 7.12502
rthumb 9.62685 -31.7256
lclavicle -1.32689e-014 4.37326e-015
lhumerus -38.2233 9.38746 76.1769
lradius 19.3408
lwrist -15.3841
lhand -15.2588 15.6425
lfingers 7.12502
lthumb 10.9152 45.3388
rfemur 10.9008 -1.43591 22.9589
rtibia 47.2514
rfoot 1.12487 -8.96869
rtoes -27.8263
lfemur -18.0013 -11.1907 -22.8515
ltibia 30.3877
lfoot -11.891 14.1732
ltoes 6.44237
687
root -9.69458 15.1723 -0.139954 1496.98 269.268 -60.7124
lowerback 3.71103 1.90307 -0.72769
upperback 4.60273 2.44149 -1.66465
thorax 2.69626 1.17921 -1.33696
lowerneck -12.9798 3.10219 5.01996
upperneck 25.3345 2.49184 0.802251
head 10.3052 1.54825 -0.282152
rclavicle 1.3418e-014 9.54166e-015
rhumerus -36.293 4.66156 -90.036
rradius 34.3397
rwrist -17.9335
rhand -15.9775 -1.99167
rfingers 7.12502
rthumb 10.2219 -31.7233
lclavicle 1.3418e-014 9.54166e-015
lhumerus -37.1173 7.77717 77.9422
lradius 20.4527
lwrist -13.0564
lhand -15.7891 15.6779
lfingers 7.12502
lthumb 10.4036 45.4005
rfemur 7.44387 -1.46065 21.6037
rtibia 53.1304
rfoot 0.504481 -11.094
rtoes -30.2525
lfemur -15.8575 -10.8363 -24.3556
ltibia 29.483
lfoot -12.4924 14.0689
ltoes 5.92187
688
root -9.97719 15.1885 -0.113798 1514.52 268.241 -78.4719
lowerback 4.02126 1.79964 -1.92278
upperback 4.73701 2.26496 -1.88289
thorax 2.62198 1.05195 -0.90024
lowerneck -12.9442 3.2537 5.10663
upperneck 25.4481 2.73364 0.596264
head 10.3497 1.64265 -0.338802
rclavicle 6.01324e-015 -2.38542e-015
rhumerus -36.2396 4.6874 -89.9591
rradius 34.0567
rwrist -17.3776
rhand -15.8755 -1.80316
rfingers 7.12502
rthumb 10.3203 -31.5299
lclavicle 6.01324e-015 -2.38542e-015
lhumerus -35.9393 5.97403 79.704
lradius 21.3949
lwrist -10.9616
lhand -16.4173 15.7831
lfingers 7.12502
lthumb 9.79756 45.5352
rfemur 4.29837 -1.77284 20.2289
rtibia 58.1202
rfoot -0.996765 -12.9998
rtoes -28.8594
lfemur -13.8695 -10.5865 -25.9062
ltibia 28.4931
lfoot -12.8758 13.9377
ltoes 5.83097
689
root -10.2627 15.2253 -0.0829611 1520.69 267.628 -84.8472
lowerback 4.34131 1.64106 -2.51378
upperback 4.83289 2.02259 -2.00688
thorax 2.52723 0.910588 -0.701824
lowerneck -12.8849 3.41308 5.21157
upperneck 25.6374 2.98649 0.36362
head 10.4194 1.74 -0.406737
rclavicle -2.1419e-014 1.63003e-014
rhumerus -36.2515 4.44642 -89.8205
rradius 33.7847
rwrist -16.6753
rhand -15.8907 -1.76557
rfingers 7.12502
rthumb 10.3056 -31.4931
lclavicle -2.1419e-014 1.63003e-014
lhumerus -34.6459 3.95181 81.4012
lradius 22.1558
lwrist -9.15105
lhand -17.1 15.5504
lfingers 7.12502
lthumb 9.13887 45.3324
rfemur 0.927515 -2.01273 19.3507
rtibia 62.3305
rfoot -3.34361 -14.5575
rtoes -27.2594
lfemur -11.8189 -10.4541 -27.0071
ltibia 27.4276
lfoot -13.2428 13.826
ltoes 5.80576
690
root -10.5385 15.2501 -0.0533276 1523.62 267.872 -87.9438
lowerback 4.66918 1.44393 -2.19922
upperback 4.87275 1.75295 -1.88915
thorax 2.39167 0.783701 -0.757881
lowerneck -12.7271 3.53599 5.37979
upperneck 25.8706 3.19478 0.054162
head 10.4888 1.81248 -0.520207
rclavicle -1.29707e-014 5.1684e-015
rhumerus -36.3146 3.96702 -89.578
rradius 33.6854
rwrist -16.0022
rhand -15.7662 -2.08313
rfingers 7.12502
rthumb 10.4257 -31.8046
lclavicle -1.29707e-014 5.1684e-015
lhumerus -33.2516 2.08753 82.883
lradius 22.8047
lwrist -8.32264
lhand -17.6011 15.1959
lfingers 7.12502
lthumb 8.6553 44.9985
rfemur -2.17792 -2.09373 19.5961
rtibia 65.4232
rfoot -4.82614 -16.0783
rtoes -24.6057
lfemur -10.0262 -10.3588 -27.1436
ltibia 26.6567
lfoot -13.689 13.7507
ltoes 5.57024
691
root -10.8113 15.2778 -0.0314815 1527.74 268.12 -92.1589
lowerback 4.79263 1.26456 -2.01418
upperback 4.97946 1.51301 -1.70335
thorax 2.43304 0.664687 -0.665622
lowerneck -12.6281 3.62734 5.52855
upperneck 26.1113 3.37338 -0.297171
head 10.5728 1.86489 -0.648679
rclavicle 2.68856e-014 -3.06128e-014
rhumerus -36.2437 3.74971 -89.3222
rradius 33.6922
rwrist -15.7916
rhand -15.6621 -2.25123
rfingers 7.12502
rthumb 10.5261 -31.9677
lclavicle 2.68856e-014 -3.06128e-014
lhumerus -31.5272 0.332219 84.2801
lradius 23.3038
lwrist -8.16797
lhand -18.0808 15.0201
lfingers 7.12502
lthumb 8.19238 44.8413
rfemur -5.38881 -1.91373 19.9991
rtibia 67.7439
rfoot -6.08069 -16.9544
rtoes -22.5175
lfemur -8.33644 -10.3487 -27.226
ltibia 25.9227
lfoot -14.1683 13.7667
ltoes 5.23446
692
root -11.0808 15.2858 -0.0152937 1534.97 267.954 -99.4958
lowerback 4.95233 1.10553 -2.32669
upperback 5.03259 1.28362 -1.56851
thorax 2.3901 0.537065 -0.348674
lowerneck -12.5334 3.67114 5.49008
upperneck 26.4847 3.46398 -0.434585
head 10.6968 1.88192 -0.681197
rclavicle -1.69961e-014 7.55382e-015
rhumerus -36.3516 3.84402 -89.1733
rradius 33.675
rwrist -16.3336
rhand -16.0453 -1.87815
rfingers 7.12502
rthumb 10.1565 -31.613
lclavicle -1.69961e-014 7.55382e-015
lhumerus -29.8478 -1.81567 85.7388
lradius 23.7759
lwrist -7.87656
lhand -19.1003 14.8516
lfingers 7.12502
lthumb 7.20834 44.7089
rfemur -8.38648 -1.76625 20.022
rtibia 69.2368
rfoot -6.99742 -17.2888
rtoes -24.0079
lfemur -6.7576 -10.4193 -27.7222
ltibia 25.386
lfoot -14.7279 13.7424
ltoes 5.01233
693
root -11.3515 15.2908 -0.00369022 1542.1 267.598 -106.782
lowerback 4.82316 0.952293 -2.86553
upperback 5.3329 1.06509 -1.4288
thorax 2.76566 0.397893 0.105209
lowerneck -12.6864 3.67488 5.30025
upperneck 26.7893 3.49431 -0.44162
head 10.8364 1.8738 -0.645188
rclavicle 1.03865e-014 6.36111e-015
rhumerus -36.2084 4.07256 -89.1199
rradius 33.8121
rwrist -17.7084
rhand -17.1164 -1.21684
rfingers 7.12502
rthumb 9.12307 -30.9995
lclavicle 1.03865e-014 6.36111e-015
lhumerus -27.7929 -4.30545 87.1823
lradius 24.2792
lwrist -7.22186
lhand -20.2222 14.6723
lfingers 7.12502
lthumb 6.12528 44.5637
rfemur -11.2613 -1.43555 19.8935
rtibia 70.0202
rfoot -8.40468 -17.4731
rtoes -22.7659
lfemur -5.15514 -10.4963 -28.3552
ltibia 24.8754
lfoot -15.1965 13.6595
ltoes 4.34495
694
root -11.6226 15.2868 0.00644169 1547.39 266.977 -112.162
lowerback 5.24373 0.900657 -3.3841
upperback 5.13383 0.959814 -1.49716
thorax 2.32123 0.338052 0.321218
lowerneck -12.4078 3.54202 5.2605
upperneck 27.3309 3.26953 -0.369452
head 10.9755 1.76713 -0.647553
rclavicle -2.38542e-015 5.56597e-015
rhumerus -36.8538 3.56555 -88.9273
rradius 34.1836
rwrist -17.4551
rhand -17.0652 -1.44667
rfingers 7.12502
rthumb 9.17242 -31.2272
lclavicle -2.38542e-015 5.56597e-015
lhumerus -26.5563 -7.41471 88.4645
lradius 25.1417
lwrist -6.17144
lhand -20.3507 14.9091
lfingers 7.12502
lthumb 6.00122 44.8041
rfemur -13.9931 -1.05592 19.4896
rtibia 70.0096
rfoot -9.85964 -17.5684
rtoes -22.9087
lfemur -3.70422 -10.6294 -29.2143
ltibia 24.4919
lfoot -15.7436 13.5587
ltoes 4.02588
695
root -11.8917 15.2708 0.0164903 1550.71 266.361 -115.553
lowerback 5.05395 0.799407 -3.99804
upperback 5.36257 0.814646 -1.49504
thorax 2.66418 0.23446 0.67287
lowerneck -12.3875 3.49942 5.25826
upperneck 27.5254 3.21712 -0.440844
head 11.0443 1.73213 -0.680621
rclavicle 1.08338e-014 -4.57205e-015
rhumerus -36.7491 3.72938 -88.8559
rradius 34.4693
rwrist -17.6222
rhand -17.1357 -1.58085
rfingers 7.12502
rthumb 9.10443 -31.3643
lclavicle 1.08338e-014 -4.57205e-015
lhumerus -24.6738 -10.0649 89.3986
lradius 26.1416
lwrist -5.14984
lhand -20.054 15.1963
lfingers 7.12502
lthumb 6.28766 45.083
rfemur -16.459 -0.69787 19.0809
rtibia 69.3027
rfoot -11.6219 -17.6889
rtoes -23.9586
lfemur -2.37399 -10.8011 -30.0598
ltibia 24.268
lfoot -16.396 13.5243
ltoes 4.1994
696
root -12.1601 15.2482 0.0253708 1552.14 265.772 -117.052
lowerback 5.24672 0.741057 -4.54133
upperback 5.31742 0.706454 -1.53433
thorax 2.51151 0.165807 0.936768
lowerneck -12.1836 3.45152 5.15199
upperneck 27.8363 3.12332 -0.315006
head 11.1142 1.68781 -0.633271
rclavicle -2.55935e-015 -3.10104e-014
rhumerus -37.07 3.88055 -88.846
rradius 34.7938
rwrist -17.8466
rhand -16.9955 -1.65472
rfingers 7.12502
rthumb 9.23966 -31.4323
lclavicle -2.55935e-015 -3.10104e-014
lhumerus -23.3329 -12.6484 90.1562
lradius 27.3115
lwrist -4.09609
lhand -20.0607 15.1717
lfingers 7.12502
lthumb 6.28122 45.0586
rfemur -18.7053 -0.245644 18.6568
rtibia 67.8748
rfoot -13.178 -18.0891
rtoes -23.7189
lfemur -1.1395 -10.9605 -30.9086
ltibia 24.2282
lfoot -17.0548 13.6801
ltoes 3.68191
697
root -12.4297 15.2277 0.031859 1553.61 265.329 -118.581
lowerback 5.4344 0.704294 -4.94594
upperback 5.28503 0.629755 -1.51852
thorax 2.3754 0.116995 1.1797
lowerneck -12.1244 3.43004 4.98281
upperneck 28.1591 3.07825 -0.189169
head 11.218 1.66045 -0.566046
rclavicle -7.03201e-015 2.06736e-014
rhumerus -37.3107 4.04592 -88.7963
rradius 35.0571
rwrist -17.9787
rhand -16.8465 -1.58453
rfingers 7.12502
rthumb 9.38342 -31.3557
lclavicle -7.03201e-015 2.06736e-014
lhumerus -22.0206 -15.0925 90.786
lradius 28.6472
lwrist -2.95359
lhand -20.0996 15.1865
lfingers 7.12502
lthumb 6.24362 45.0744
rfemur -20.6664 0.307883 18.3614
rtibia 65.7011
rfoot -14.9876 -18.5274
rtoes -25.0875
lfemur 0.0312951 -11.0765 -31.5782
ltibia 24.2785
lfoot -17.823 13.828
ltoes 3.16703
